# xmcd CD database file
#
# Track frame offsets:
#	150
#	11855
#	25732
#	43680
#	57052
#	70660
#	84105
#	97877
#	108880
#	121630
#	133207
#	146007
#	158642
#	172365
#	186292
#	199807
#	211507
#	226357
#
# Disc length: 3159 seconds
#
# Revision: 0
# Processed by: cddbd v1.5.2PL0 Copyright (c) Steve Scherf et al.
# Submitted via: CDex 1.79
#
DISCID=ea0c5512
DTITLE=Various Artist - Hall of Fame - Country Music Cavalcade Volume 2
DYEAR=1999
DGENRE=Country
TTITLE0=Johnny Cash-Big River (Live)
TTITLE1=Eddy Arnold-Cattle Call
TTITLE2=Willie Nelson-Red Headed Stranger (Live)
TTITLE3=The Carter Family-My Dixie Darling
TTITLE4=Tex Williams-The Leaf Of Love
TTITLE5=Charley Pride-I'm So Afraid Of Losing You Again (Live)
TTITLE6=Jimmie Davis-It Makes No Difference Now
TTITLE7=Bill Monroe-Bluegrass Special
TTITLE8=Bob Wills and His Texas Playboys-Stay A Little Longer
TTITLE9=Jimmie Rodgers-Blue Yodel No. 5
TTITLE10=Tex Ritter-I'm Wasting My Tears On You
TTITLE11=Al Dexter-Pistol Packin' Mama
TTITLE12=Hank Snow-My Mother
TTITLE13=Rex Griffin-The Last Letter
TTITLE14=Roy Acuff-It Won't Be Long (Till I'll Be Leaving)
TTITLE15=Jack Guthrie-I'm Telling You
TTITLE16=T. Texas Tyler-The Goodnight Waltz
TTITLE17=Faron Young-Waterloo
EXTD=YEAR: 1999
EXTT0=
EXTT1=
EXTT2=
EXTT3=
EXTT4=
EXTT5=
EXTT6=
EXTT7=
EXTT8=
EXTT9=
EXTT10=
EXTT11=
EXTT12=
EXTT13=
EXTT14=
EXTT15=
EXTT16=
EXTT17=
PLAYORDER=
